# Blender v2.91.0 OBJ File: ''
# www.blender.org
mtllib Road-Modern_000250.mtl
o Plane01_Mesh
v 0.029701 0.000000 -0.059926
v -0.030299 0.000000 -0.059926
v 0.029701 -0.000000 0.060074
v -0.030299 -0.000000 0.060074
v -0.020267 -0.000000 0.060074
v 0.019669 -0.000000 0.060074
v 0.019669 0.000000 -0.059926
v -0.020267 0.000000 -0.059926
v -0.030299 0.002000 0.060074
v -0.020267 0.000499 0.060074
v -0.020267 0.000499 -0.059926
v -0.030299 0.002000 -0.059926
v 0.029701 0.002000 0.060074
v 0.029701 0.002000 -0.059926
v 0.019669 0.000499 -0.059926
v 0.019669 0.000499 0.060074
v -0.021767 0.002000 0.060074
v -0.021767 0.002000 -0.059926
v 0.021170 0.002000 -0.059926
v 0.021170 0.002000 0.060074
v -0.020327 0.001040 0.060074
v -0.020507 0.001460 0.060074
v -0.020807 0.001760 0.060074
v -0.021227 0.001940 0.060074
v -0.021227 0.001940 -0.059926
v -0.020807 0.001760 -0.059926
v -0.020507 0.001460 -0.059926
v -0.020327 0.001040 -0.059926
v 0.019729 0.001040 -0.059926
v 0.019909 0.001460 -0.059926
v 0.020209 0.001760 -0.059926
v 0.020630 0.001940 -0.059926
v 0.020630 0.001940 0.060074
v 0.020209 0.001760 0.060074
v 0.019909 0.001460 0.060074
v 0.019729 0.001040 0.060074
vt 0.167200 0.000000
vt 0.832800 0.000000
vt 0.832800 1.000000
vt 0.167200 1.000000
vt 0.857810 0.000000
vt 1.000000 0.000000
vt 1.000000 1.000000
vt 0.857810 1.000000
vt 0.142190 1.000000
vt 0.000000 1.000000
vt 0.000000 0.000000
vt 0.142190 0.000000
vt 1.000000 1.000000
vt 0.832800 1.000000
vt 0.833800 1.000000
vt 0.836802 1.000000
vt 0.841804 1.000000
vt 0.848806 1.000000
vt 0.832800 0.000000
vt 1.000000 0.000000
vt 0.848806 0.000000
vt 0.841804 0.000000
vt 0.836802 0.000000
vt 0.833800 0.000000
vt 0.000000 1.000000
vt 0.000000 0.000000
vt 0.167200 0.000000
vt 0.166200 0.000000
vt 0.163198 0.000000
vt 0.158196 0.000000
vt 0.151194 0.000000
vt 0.167200 1.000000
vt 0.151194 1.000000
vt 0.158196 1.000000
vt 0.163198 1.000000
vt 0.166200 1.000000
vn 0.0000 1.0000 0.0000
vn 0.0553 0.9985 0.0000
vn -0.0553 0.9985 0.0000
vn -0.0000 0.0000 1.0000
vn 1.0000 0.0000 -0.0000
vn 0.9985 0.0553 -0.0000
vn 0.0000 0.0000 -1.0000
vn -1.0000 0.0000 0.0000
vn -0.9985 0.0553 0.0000
vn 0.2549 0.9670 0.0000
vn -0.2549 0.9670 0.0000
vn 0.5606 0.8281 0.0000
vn 0.8281 0.5606 0.0000
vn 0.9670 0.2549 -0.0000
vn -0.5606 0.8281 0.0000
vn -0.8281 0.5606 0.0000
vn -0.9670 0.2549 0.0000
g Plane01_Mesh_Material.001
usemtl Material.001
s 1
f 7/1/1 8/2/1 5/3/1 6/4/1
f 18/5/2 12/6/1 9/7/1 17/8/2
f 20/9/3 13/10/1 14/11/1 19/12/3
f 4/13/4 5/3/4 10/14/4 21/15/4 22/16/4 23/17/4 24/18/4 17/8/4 9/7/4
f 5/3/5 8/2/5 11/19/6 10/14/6
f 8/2/7 2/20/7 12/6/7 18/5/7 25/21/7 26/22/7 27/23/7 28/24/7 11/19/7
f 2/20/8 4/13/8 9/7/8 12/6/8
f 3/25/5 1/26/5 14/11/5 13/10/5
f 1/26/7 7/1/7 15/27/7 29/28/7 30/29/7 31/30/7 32/31/7 19/12/7 14/11/7
f 7/1/8 6/4/8 16/32/9 15/27/9
f 6/4/4 3/25/4 13/10/4 20/9/4 33/33/4 34/34/4 35/35/4 36/36/4 16/32/4
f 17/8/2 24/18/10 25/21/10 18/5/2
f 19/12/3 32/31/11 33/33/11 20/9/3
f 24/18/10 23/17/12 26/22/12 25/21/10
f 23/17/12 22/16/13 27/23/13 26/22/12
f 22/16/13 21/15/14 28/24/14 27/23/13
f 21/15/14 10/14/6 11/19/6 28/24/14
f 32/31/11 31/30/15 34/34/15 33/33/11
f 31/30/15 30/29/16 35/35/16 34/34/15
f 30/29/16 29/28/17 36/36/17 35/35/16
f 29/28/17 15/27/9 16/32/9 36/36/17
